<?xml version="1.0" encoding="UTF-8"?>
<svg version="1.1" xmlns="http://www.w3.org/2000/svg" width="389" height="129">
<path d="M0 0 C3.37850953 -0.28524002 6.62952024 -0.42540036 10 0 C11.9375 2.0625 11.9375 2.0625 13 5 C13.474375 6.0725 13.94875 7.145 14.4375 8.25 C14.685 8.84683594 14.9325 9.44367187 15.1875 10.05859375 C16.06736817 12.16097106 16.99967409 14.23536213 17.9375 16.3125 C19.35977814 19.49107614 20.6759186 22.6919801 21.9375 25.9375 C23.66822628 30.32564064 25.69873908 34.49684599 27.84375 38.6953125 C29.37139683 41.74028422 30.68592716 44.85765192 32 48 C32.62239702 49.39699593 33.24760803 50.79274016 33.875 52.1875 C35.43710409 55.68448302 36.91885109 59.20763774 38.375 62.75 C41.06591041 69.25512921 44.0091145 75.62766664 47 82 C47.99 81.67 48.98 81.34 50 81 C50.67485255 79.33663105 51.33905412 77.66894361 52 76 C53.77975586 73.18832872 55.73683419 70.50746748 57.6875 67.8125 C58.77492108 66.29309863 59.86216149 64.77356793 60.94921875 63.25390625 C61.47435059 62.52316895 61.99948242 61.79243164 62.54052734 61.03955078 C64.38596074 58.46063633 66.19495062 55.85729355 68 53.25 C70.22121155 50.0637475 72.57346029 47.03317464 75 44 C76.00553438 42.33666648 77.00452414 40.66937282 78 39 C79.33927887 36.88632622 80.69403808 34.78239778 82.0625 32.6875 C83.10083984 31.08455078 83.10083984 31.08455078 84.16015625 29.44921875 C85.07087891 28.23685547 85.07087891 28.23685547 86 27 C86.66 27 87.32 27 88 27 C88.09539062 26.43152344 88.19078125 25.86304687 88.2890625 25.27734375 C89.16143866 22.48286407 90.52037491 20.82013434 92.375 18.5625 C94.85381521 15.47281587 97.04163555 12.45045165 99 9 C100.32700668 6.99579666 101.65974558 4.9953686 103 3 C86.26651606 4.19878464 69.63982 5.86411056 53 8 C53 5.36 53 2.72 53 0 C74.12 0 95.24 0 117 0 C115.02 3.3 113.04 6.6 111 10 C110.34 10 109.68 10 109 10 C108.9175 10.54398438 108.835 11.08796875 108.75 11.6484375 C107.74170013 14.8098777 105.99468912 16.98203691 104 19.625 C101.26818173 23.16898529 101.26818173 23.16898529 99 27 C98.34 27 97.68 27 97 27 C96.79375 27.66 96.5875 28.32 96.375 29 C94.78434662 32.47051646 92.70767229 35.15710621 90.33984375 38.1328125 C88.81385317 40.06483629 88.81385317 40.06483629 88 43 C87.34 43 86.68 43 86 43 C85.7834375 43.65355469 85.566875 44.30710938 85.34375 44.98046875 C83.51503562 49.08976009 81.05286913 52.62172409 78.5 56.3125 C77.75169922 57.42334961 77.75169922 57.42334961 76.98828125 58.55664062 C76.26705078 59.60561523 76.26705078 59.60561523 75.53125 60.67578125 C75.09361328 61.31427002 74.65597656 61.95275879 74.20507812 62.6105957 C73.60856445 63.29835083 73.60856445 63.29835083 73 64 C72.34 64 71.68 64 71 64 C70.9071875 64.55429688 70.814375 65.10859375 70.71875 65.6796875 C69.80815374 68.61932977 68.3090059 70.64132387 66.5 73.125 C64.05517657 76.44469454 64.05517657 76.44469454 62 80 C76.53320549 80.32015082 90.56303415 80.27385046 104.890625 77.65625 C108.65411412 76.98156287 112.18145702 76.87877641 116 77 C116 79.64 116 82.28 116 85 C90.26 85 64.52 85 38 85 C35.36 79.72 32.72 74.44 30 69 C25.29384238 63.35261086 23.27855349 61.58601807 17 59 C15.515 58.38125 15.515 58.38125 14 57.75 C6.38919974 55.84729993 -0.2530101 56.99540906 -7 61 C-11.32450876 65.19541895 -12.60577048 70.18772502 -14.25 75.8125 C-14.518125 76.69615234 -14.78625 77.57980469 -15.0625 78.49023438 C-15.71842434 80.65712729 -16.36060065 82.82817355 -17 85 C-19.97 85 -22.94 85 -26 85 C-25.47940062 79.04647886 -24.17007471 74.24355626 -21.875 68.75 C-21.23409574 67.1600134 -20.59617891 65.56882002 -19.9609375 63.9765625 C-19.63448242 63.15833008 -19.30802734 62.34009766 -18.97167969 61.49707031 C-17.38052336 57.40803843 -15.93524744 53.27086357 -14.5 49.125 C-14.06977539 47.88278687 -14.06977539 47.88278687 -13.63085938 46.61547852 C-13.04776306 44.92864088 -12.46540887 43.24154652 -11.88378906 41.55419922 C-10.69236324 38.11091277 -9.48189329 34.67444323 -8.27148438 31.23779297 C-7.11188161 27.93898838 -5.96327379 24.63640741 -4.81542969 21.33349609 C-4.02418707 19.06921558 -3.21985008 16.80991845 -2.4140625 14.55078125 C-1.94214901 13.20071621 -1.47076197 11.850467 -1 10.5 C-0.5875 9.3346875 -0.175 8.169375 0.25 6.96875 C0.98150364 4.07321476 1.07292053 2.73594736 0 0 Z M4 10 C1.62775457 16.79160621 -0.46185107 23.55979613 -2.140625 30.5546875 C-3.93409488 37.74487131 -5.9947009 44.86652494 -8 52 C-6.73285156 51.96519531 -5.46570313 51.93039063 -4.16015625 51.89453125 C-2.46095089 51.86636763 -0.76173102 51.83907025 0.9375 51.8125 C1.76830078 51.78736328 2.59910156 51.76222656 3.45507812 51.73632812 C11.88773185 51.63789248 18.60664136 54.01896073 26 58 C24.69255664 53.78990727 23.08419819 49.97728963 21.0625 46.0625 C18.87075515 41.75330674 16.85246722 37.46276193 15 33 C14.3580188 31.5399668 13.71189495 30.08175084 13.0625 28.625 C12.72605469 27.86960937 12.38960937 27.11421875 12.04296875 26.3359375 C11.33816899 24.7573972 10.63241489 23.17928271 9.92578125 21.6015625 C8.20952324 17.76071743 6.51915158 13.92447492 5 10 C4.67 10 4.34 10 4 10 Z " fill="#FBF9F8" transform="translate(163,2)"/>
<path d="M0 0 C0.495 1.485 0.495 1.485 1 3 C2.32 3.66 3.64 4.32 5 5 C5 8.3 5 11.6 5 15 C3.35 15.33 1.7 15.66 0 16 C-0.474375 14.80375 -0.94875 13.6075 -1.4375 12.375 C-5.0785028 5.08008305 -12.6310576 1.71856332 -20 -1 C-29.41010352 -2.151083 -38.16389117 -1.82930047 -46 4 C-48.5203963 6.39577929 -48.5203963 6.39577929 -50 9 C-50.4125 9.61875 -50.825 10.2375 -51.25 10.875 C-52.71189449 15.01703438 -52.50818708 18.68469226 -50.9375 22.75 C-44.56090734 30.15507535 -31.02022505 30.84591646 -21.875 32.5 C-10.86188404 34.54747605 -2.60288819 36.12218986 5 45 C8.92279599 51.44904103 8.89962427 57.64325947 8 65 C6.80403977 68.16461903 5.22210706 70.47012188 3 73 C2.2575 73.9075 1.515 74.815 0.75 75.75 C-10.54826709 84.99403671 -26.46598586 84.0002249 -40.25 82.69140625 C-48.24346621 81.28005987 -54.62044681 78.17066395 -60 72 C-62.21066083 68.68400876 -62.32275195 67.38725511 -62.375 63.5 C-62.40335938 62.5409375 -62.43171875 61.581875 -62.4609375 60.59375 C-62 58 -62 58 -60.171875 56.1796875 C-57.26025607 54.59819664 -55.26092034 54.57466256 -52 55 C-51.34 55.99 -50.68 56.98 -50 58 C-50.7425 58.5878125 -50.7425 58.5878125 -51.5 59.1875 C-53.17719725 60.91690917 -53.17719725 60.91690917 -53.4375 63.3125 C-52.72095978 67.71410422 -50.70709032 70.62526354 -47.234375 73.421875 C-38.43843552 79.30892111 -29.35777118 79.786513 -19 79 C-12.32148286 77.55228347 -6.70785483 74.29212096 -2.625 68.8125 C-0.49725437 64.69885845 -0.27893557 60.53599833 -1 56 C-1.65761542 54.66217932 -2.32361112 53.32842776 -3 52 C-3 51.01 -3 50.02 -3 49 C-4.6630584 48.32438252 -6.33094605 47.66066719 -8 47 C-9.155 46.525625 -10.31 46.05125 -11.5 45.5625 C-19.1218034 42.72581377 -27.1738761 41.24793886 -35.1875 40 C-41.7893499 38.94930771 -48.38195889 37.74536074 -54 34 C-54 33.34 -54 32.68 -54 32 C-54.8971875 31.7215625 -54.8971875 31.7215625 -55.8125 31.4375 C-59.04118002 29.31579598 -60.07454853 26.61525286 -61 23 C-61.91320026 16.23351615 -61.17616613 10.52062987 -57 5 C-43.3754169 -9.46147395 -16.67597577 -7.98916518 0 0 Z " fill="#FDFBFB" transform="translate(62,5)"/>
<path d="M0 0 C2.20839125 1.39910502 4.30659833 2.73728704 6.265625 4.46875 C6.265625 5.12875 6.265625 5.78875 6.265625 6.46875 C7.255625 6.79875 8.245625 7.12875 9.265625 7.46875 C19.54690789 19.25795438 20.44451079 32.88530028 19.54052734 47.85546875 C18.96169545 53.35797014 17.17621252 57.81488183 14.265625 62.46875 C13.80800781 63.20867187 13.35039062 63.94859375 12.87890625 64.7109375 C6.96221125 73.30230284 -0.83224862 79.37170064 -10.95703125 82.05859375 C-27.05949929 84.43659536 -40.06232035 82.15262935 -53.2734375 72.640625 C-61.85388629 65.06803845 -65.34455654 54.50633741 -66.734375 43.46875 C-66.88712891 42.32019531 -66.88712891 42.32019531 -67.04296875 41.1484375 C-67.68558624 30.9055042 -64.08227482 18.46911898 -57.734375 10.46875 C-56.6515625 8.98375 -56.6515625 8.98375 -55.546875 7.46875 C-54.94875 6.80875 -54.350625 6.14875 -53.734375 5.46875 C-53.074375 5.46875 -52.414375 5.46875 -51.734375 5.46875 C-51.404375 4.47875 -51.074375 3.48875 -50.734375 2.46875 C-48.2578125 0.93359375 -48.2578125 0.93359375 -45.109375 -0.59375 C-44.08585937 -1.10035156 -43.06234375 -1.60695312 -42.0078125 -2.12890625 C-28.35316587 -7.9785699 -12.96095054 -7.2581323 0 0 Z M-43.734375 4.46875 C-43.734375 5.12875 -43.734375 5.78875 -43.734375 6.46875 C-44.311875 6.675 -44.889375 6.88125 -45.484375 7.09375 C-51.60039278 10.83131642 -54.71104861 19.56150378 -56.46484375 26.2578125 C-58.70462559 37.65213889 -58.55990966 51.66039454 -52.234375 61.78125 C-51.8115625 62.39613281 -51.38875 63.01101562 -50.953125 63.64453125 C-49.734375 65.46875 -49.734375 65.46875 -48.90234375 67.44140625 C-45.8087709 72.81118655 -38.88023312 76.51503528 -33.359375 78.96875 C-22.35251725 80.48693728 -13.61309895 80.09273146 -4.484375 73.59375 C-1.41740746 71.16174058 1.00912585 68.69232021 3.265625 65.46875 C3.9153125 64.57414062 4.565 63.67953125 5.234375 62.7578125 C11.34222826 52.86778856 12.78102374 40.18195933 10.5703125 28.9296875 C7.36258449 16.34137673 1.41894842 7.44671429 -9.671875 0.58203125 C-21.98747741 -6.06559505 -32.77341799 -2.66861736 -43.734375 4.46875 Z " fill="#FBF9F8" transform="translate(369.734375,5.53125)"/>
<path d="M0 0 C11.6325 -0.0928125 11.6325 -0.0928125 23.5 -0.1875 C25.93310547 -0.21481201 28.36621094 -0.24212402 30.87304688 -0.27026367 C32.82160955 -0.27903315 34.77017775 -0.286676 36.71875 -0.29296875 C38.21196777 -0.3159906 38.21196777 -0.3159906 39.73535156 -0.33947754 C47.54069056 -0.34238419 54.58407024 0.80015861 60.61328125 6.30078125 C65.32505362 12.07436148 67.87057311 19.08593437 67.41015625 26.5234375 C66.10911753 34.37923319 63.22818176 39.55482383 57.09765625 44.625 C51.63422807 48.20624156 46.88612837 48.27048623 40.54296875 48.1953125 C39.64000565 48.1924826 38.73704254 48.18965271 37.80671692 48.18673706 C34.93350766 48.17557607 32.06061445 48.15047897 29.1875 48.125 C27.23503056 48.11496493 25.28255621 48.10584 23.33007812 48.09765625 C18.55326434 48.07565008 13.77668569 48.04114831 9 48 C9.00523682 49.08531006 9.01047363 50.17062012 9.01586914 51.28881836 C9.03391836 55.30117982 9.04543171 59.31353767 9.05493164 63.32592773 C9.05997204 65.06519168 9.0668043 66.80445136 9.07543945 68.54370117 C9.08751792 71.03825937 9.09323108 73.53276173 9.09765625 76.02734375 C9.10281754 76.80963852 9.10797882 77.59193329 9.11329651 78.39793396 C9.11349226 80.26567114 9.06199694 82.13329204 9 84 C8.505 84.495 8.505 84.495 8 85 C5.36 85 2.72 85 0 85 C0 56.95 0 28.9 0 0 Z M9 4 C8.87406802 6.93364274 8.81131934 9.84245679 8.796875 12.77734375 C8.79117493 13.65902725 8.78547485 14.54071075 8.77960205 15.44911194 C8.77013795 17.317869 8.76361249 19.18664286 8.75976562 21.05541992 C8.7500525 23.92200648 8.71903972 26.78787858 8.6875 29.65429688 C8.68097108 31.46614156 8.67572017 33.27799139 8.671875 35.08984375 C8.6595282 35.9513353 8.6471814 36.81282684 8.63446045 37.70042419 C8.60918425 40.36576599 8.60918425 40.36576599 9 44 C12.08402047 46.05601365 12.75647483 46.25506982 16.24609375 46.265625 C17.07826416 46.26957275 17.91043457 46.27352051 18.76782227 46.27758789 C19.64881592 46.26848389 20.52980957 46.25937988 21.4375 46.25 C22.7831604 46.24311157 22.7831604 46.24311157 24.15600586 46.23608398 C31.96447686 46.12990847 39.55453625 45.48182125 47 43 C47 42.34 47 41.68 47 41 C47.5775 40.7525 48.155 40.505 48.75 40.25 C51.38704101 38.78497722 53.07358864 37.32497923 55 35 C56.71180652 28.49961052 57.28463942 20.41743467 54.8125 14.0625 C51.03585754 7.68127653 46.94768617 4.9712681 40 3 C34.00934771 1.59793244 13.67805299 -0.67805299 9 4 Z " fill="#FCFBFA" transform="translate(79,2)"/>
<path d="M0 0 C2.64 0 5.28 0 8 0 C8 28.05 8 56.1 8 85 C5.36 85 2.72 85 0 85 C0 56.95 0 28.9 0 0 Z " fill="#FFFEFE" transform="translate(286,2)"/>
<path d="M0 0 C2.31 0 4.62 0 7 0 C6.67 1.98 6.34 3.96 6 6 C6.33 5.34 6.66 4.68 7 4 C7.99 4 8.98 4 10 4 C9.814375 4.763125 9.62875 5.52625 9.4375 6.3125 C8.77180827 9.08967375 8.77180827 9.08967375 10 12 C6.37 12 2.74 12 -1 12 C-2.02622323 6.86888386 -1.6040687 4.81220611 0 0 Z M2 7 C3 10 3 10 3 10 Z " fill="#FCFCFA" transform="translate(173,113)"/>
<path d="M0 0 C8.49609375 -0.09765625 8.49609375 -0.09765625 11 0 C12 1 12 1 12.3125 4.875 C12.23742331 8.68343558 12.23742331 8.68343558 10.5 11 C6.87920862 12.44831655 3.88716564 12.19435828 0 12 C0 8.04 0 4.08 0 0 Z M4 1 C4 3.97 4 6.94 4 10 C5.32 9.67 6.64 9.34 8 9 C8 6.69 8 4.38 8 2 C6.68 1.67 5.36 1.34 4 1 Z " fill="#FBFBFB" transform="translate(306,113)"/>
<path d="M0 0 C1.134375 0.020625 2.26875 0.04125 3.4375 0.0625 C3.4375 2.39583333 3.4375 4.72916667 3.4375 7.0625 C3.623125 7.7225 3.80875 8.3825 4 9.0625 C4.4375 11.0625 4.4375 11.0625 3.4375 13.0625 C0.7975 13.0625 -1.8425 13.0625 -4.5625 13.0625 C-4.58936553 11.08340602 -4.60883375 9.10421029 -4.625 7.125 C-4.63660156 6.02285156 -4.64820313 4.92070313 -4.66015625 3.78515625 C-4.51237367 -0.33502211 -4.25789233 0.07469987 0 0 Z M-1.5625 2.0625 C-0.5625 4.0625 -0.5625 4.0625 -0.5625 4.0625 Z M-1.5625 9.0625 C-1.5625 9.7225 -1.5625 10.3825 -1.5625 11.0625 C-0.5725 10.7325 0.4175 10.4025 1.4375 10.0625 C0.4475 9.7325 -0.5425 9.4025 -1.5625 9.0625 Z " fill="#F9F7F4" transform="translate(364.5625,115.9375)"/>
<path d="M0 0 C1.859375 0.22265625 1.859375 0.22265625 4 1 C5.265625 2.99609375 5.265625 2.99609375 6.25 5.4375 C6.58515625 6.24058594 6.9203125 7.04367188 7.265625 7.87109375 C8 10 8 10 8 12 C6.35 11.67 4.7 11.34 3 11 C3 10.01 3 9.02 3 8 C1.68 8 0.36 8 -1 8 C-1.33 9.32 -1.66 10.64 -2 12 C-2.99 12 -3.98 12 -5 12 C-4.54738642 10.56068883 -4.08767021 9.12361001 -3.625 7.6875 C-3.24214844 6.48673828 -3.24214844 6.48673828 -2.8515625 5.26171875 C-2 3 -2 3 0 0 Z " fill="#FCFCFB" transform="translate(10,113)"/>
<path d="M0 0 C1.32 0.33 2.64 0.66 4 1 C3.67 2.32 3.34 3.64 3 5 C3.804375 4.979375 4.60875 4.95875 5.4375 4.9375 C8 5 8 5 9 6 C9.14115161 8.67058851 9.04247107 11.32432238 9 14 C8.01 14 7.02 14 6 14 C6 11.69 6 9.38 6 7 C5.01 7.495 5.01 7.495 4 8 C4 9.98 4 11.96 4 14 C2.68 14 1.36 14 0 14 C0 9.38 0 4.76 0 0 Z " fill="#F4F4F1" transform="translate(47,111)"/>
<path d="M0 0 C0.99 0 1.98 0 3 0 C3.33 0.99 3.66 1.98 4 3 C4.33 2.01 4.66 1.02 5 0 C6.32 0 7.64 0 9 0 C9 2.97 9 5.94 9 9 C2.84765625 9.09765625 2.84765625 9.09765625 1 9 C0 8 0 8 -0.09765625 6.15234375 C-0.06510417 4.1015625 -0.03255208 2.05078125 0 0 Z " fill="#FDFDFC" transform="translate(121,116)"/>
<path d="M0 0 C6.15234375 -0.09765625 6.15234375 -0.09765625 8 0 C9 1 9 1 9.09765625 2.84765625 C9.04882812 5.92382812 9.04882812 5.92382812 9 9 C7.68 9 6.36 9 5 9 C4.67 7.02 4.34 5.04 4 3 C4 4.65 4 6.3 4 8 C2.68 8.33 1.36 8.66 0 9 C0 6.03 0 3.06 0 0 Z " fill="#FAFBFA" transform="translate(209,116)"/>
<path d="M0 0 C1.31236443 4.4143167 1.31236443 4.4143167 0 6.875 C-3.10259257 8.62020832 -5.6273707 7.69997967 -9 7 C-9.33 5.02 -9.66 3.04 -10 1 C-6.1496895 -1.56687367 -4.41430237 -0.83288724 0 0 Z M-5 0 C-5.33 1.65 -5.66 3.3 -6 5 C-5.01 5 -4.02 5 -3 5 C-3.33 3.35 -3.66 1.7 -4 0 C-4.33 0 -4.66 0 -5 0 Z " fill="#FCFCFC" transform="translate(278,117)"/>
<path d="M0 0 C0.33 1.65 0.66 3.3 1 5 C0.01 5.495 0.01 5.495 -1 6 C-0.34 6 0.32 6 1 6 C0.67 6.99 0.34 7.98 0 9 C-6.875 8.125 -6.875 8.125 -8 7 C-8.04080783 5.00041636 -8.04254356 2.99954746 -8 1 C-5.29120665 -0.35439668 -2.99066732 -0.06501451 0 0 Z " fill="#FCFBFA" transform="translate(331,116)"/>
<path d="M0 0 C2.33944736 0.28730055 4.6739143 0.61936779 7 1 C7 2.32 7 3.64 7 5 C6.01 5.33 5.02 5.66 4 6 C4.99 6 5.98 6 7 6 C6.67 6.99 6.34 7.98 6 9 C3.125 9.1875 3.125 9.1875 0 9 C-2 6 -2 6 -1.6875 3.375 C-1 1 -1 1 0 0 Z M3 1 C2.67 1.66 2.34 2.32 2 3 C2.66 3 3.32 3 4 3 C3.67 2.34 3.34 1.68 3 1 Z " fill="#F9F9F7" transform="translate(84,116)"/>
<path d="M0 0 C1.4540625 0.0309375 1.4540625 0.0309375 2.9375 0.0625 C3.2675 1.7125 3.5975 3.3625 3.9375 5.0625 C2.9475 5.3925 1.9575 5.7225 0.9375 6.0625 C1.9275 6.0625 2.9175 6.0625 3.9375 6.0625 C3.6075 7.0525 3.2775 8.0425 2.9375 9.0625 C0.0625 9.25 0.0625 9.25 -3.0625 9.0625 C-5.0625 6.0625 -5.0625 6.0625 -4.75 3.4375 C-3.74055958 -0.0496578 -3.77085022 0.07695613 0 0 Z " fill="#FCFCFB" transform="translate(151.0625,115.9375)"/>
<path d="M0 0 C5.75 -0.125 5.75 -0.125 8 1 C7.625 2.9375 7.625 2.9375 7 5 C6.01 5.495 6.01 5.495 5 6 C5.66 6 6.32 6 7 6 C6.67 6.99 6.34 7.98 6 9 C3.6875 9.3125 3.6875 9.3125 1 9 C-0.9375 6.75 -0.9375 6.75 -2 4 C-1.1875 1.6875 -1.1875 1.6875 0 0 Z M3 1 C2.67 1.66 2.34 2.32 2 3 C2.66 3 3.32 3 4 3 C3.67 2.34 3.34 1.68 3 1 Z " fill="#FDFCFC" transform="translate(235,116)"/>
<path d="M0 0 C6.75 -0.125 6.75 -0.125 9 1 C9 3.64 9 6.28 9 9 C8.01 9 7.02 9 6 9 C5.34 6.69 4.68 4.38 4 2 C3.67 4.31 3.34 6.62 3 9 C2.01 9 1.02 9 0 9 C0 6.03 0 3.06 0 0 Z " fill="#FEFDFC" transform="translate(374,116)"/>
<path d="M0 0 C0.33 0.66 0.66 1.32 1 2 C-0.65 1.67 -2.3 1.34 -4 1 C-4 2.98 -4 4.96 -4 7 C-2.35 6.67 -0.7 6.34 1 6 C0.67 6.99 0.34 7.98 0 9 C-2.875 9.125 -2.875 9.125 -6 9 C-8 7 -8 7 -8.125 3.875 C-8.08375 2.92625 -8.0425 1.9775 -8 1 C-5.29120665 -0.35439668 -2.99066732 -0.06501451 0 0 Z " fill="#FCFCFC" transform="translate(104,116)"/>
<path d="M0 0 C1.670625 0.061875 1.670625 0.061875 3.375 0.125 C3.375 0.785 3.375 1.445 3.375 2.125 C2.055 2.125 0.735 2.125 -0.625 2.125 C-0.955 3.775 -1.285 5.425 -1.625 7.125 C0.025 6.795 1.675 6.465 3.375 6.125 C3.045 7.115 2.715 8.105 2.375 9.125 C-4.5 8.25 -4.5 8.25 -5.625 7.125 C-5.8125 4.6875 -5.8125 4.6875 -5.625 2.125 C-3.625 0.125 -3.625 0.125 0 0 Z " fill="#FCFCFC" transform="translate(38.625,115.875)"/>
<path d="M0 0 C0.99 0 1.98 0 3 0 C3 0.99 3 1.98 3 3 C3.66 3.33 4.32 3.66 5 4 C4.34 4 3.68 4 3 4 C3 5.65 3 7.3 3 9 C3.66 9.33 4.32 9.66 5 10 C5 10.66 5 11.32 5 12 C3.35 12 1.7 12 0 12 C-0.144375 10.88625 -0.28875 9.7725 -0.4375 8.625 C-0.78372035 5.17857953 -0.78372035 5.17857953 -2 3 C-1.34 2.01 -0.68 1.02 0 0 Z " fill="#F7F7F7" transform="translate(111,113)"/>
<path d="M0 0 C0 0.66 0 1.32 0 2 C-0.99 2.33 -1.98 2.66 -3 3 C-1.68 3.33 -0.36 3.66 1 4 C0.67 5.65 0.34 7.3 0 9 C-1.98 9 -3.96 9 -6 9 C-6 8.01 -6 7.02 -6 6 C-4.68 5.67 -3.36 5.34 -2 5 C-3.32 4.67 -4.64 4.34 -6 4 C-6 3.01 -6 2.02 -6 1 C-4 0 -4 0 0 0 Z " fill="#FBFBFA" transform="translate(343,116)"/>
<path d="M0 0 C0.99 0 1.98 0 3 0 C3 0.66 3 1.32 3 2 C3.66 2.66 4.32 3.32 5 4 C4.01 4 3.02 4 2 4 C2.34444881 6.47266765 2.34444881 6.47266765 3 9 C3.66 9.33 4.32 9.66 5 10 C5 10.66 5 11.32 5 12 C3.35 12 1.7 12 0 12 C-0.39063507 10.56666979 -0.76198474 9.12807321 -1.125 7.6875 C-1.33382812 6.88699219 -1.54265625 6.08648437 -1.7578125 5.26171875 C-2 3 -2 3 0 0 Z " fill="#FBFAFA" transform="translate(73,113)"/>
<path d="M0 0 C0.99 0 1.98 0 3 0 C3 0.99 3 1.98 3 3 C3.66 3.33 4.32 3.66 5 4 C4.34 4 3.68 4 3 4 C3 5.98 3 7.96 3 10 C3.66 10 4.32 10 5 10 C5 10.66 5 11.32 5 12 C3.35 11.67 1.7 11.34 0 11 C0 8.69 0 6.38 0 4 C-0.66 3.67 -1.32 3.34 -2 3 C-1.34 3 -0.68 3 0 3 C0 2.01 0 1.02 0 0 Z " fill="#F0F0EE" transform="translate(224,113)"/>
<path d="M0 0 C2.31 0 4.62 0 7 0 C7 1.65 7 3.3 7 5 C5.34385343 5.38218767 3.67542976 5.71395102 2 6 C1.67 5.67 1.34 5.34 1 5 C0.34 5 -0.32 5 -1 5 C-0.67 3.35 -0.34 1.7 0 0 Z " fill="#FCFCFB" transform="translate(361,116)"/>
<path d="M0 0 C0.99 0 1.98 0 3 0 C3.33 3.63 3.66 7.26 4 11 C2.68 11.33 1.36 11.66 0 12 C0 8.04 0 4.08 0 0 Z " fill="#FCFBF9" transform="translate(199,113)"/>
<path d="M0 0 C1.4540625 0.0309375 1.4540625 0.0309375 2.9375 0.0625 C2.9375 0.7225 2.9375 1.3825 2.9375 2.0625 C1.9475 2.0625 0.9575 2.0625 -0.0625 2.0625 C-0.0625 4.3725 -0.0625 6.6825 -0.0625 9.0625 C-1.0525 9.0625 -2.0425 9.0625 -3.0625 9.0625 C-4.42873674 6.33002652 -4.190926 4.08051098 -4.0625 1.0625 C-3.0625 0.0625 -3.0625 0.0625 0 0 Z " fill="#FBFAF9" transform="translate(139.0625,115.9375)"/>
<path d="M0 0 C1.98 0 3.96 0 6 0 C6 0.66 6 1.32 6 2 C5.01 2.495 5.01 2.495 4 3 C3.34227572 6.02934491 3.34227572 6.02934491 3 9 C2.01 9 1.02 9 0 9 C0 6.03 0 3.06 0 0 Z " fill="#FCFCFB" transform="translate(248,116)"/>
<path d="M0 0 C1.98 0 3.96 0 6 0 C6 0.66 6 1.32 6 2 C5.01 2.495 5.01 2.495 4 3 C3.34227572 6.02934491 3.34227572 6.02934491 3 9 C2.01 9 1.02 9 0 9 C0 6.03 0 3.06 0 0 Z " fill="#FCFCFA" transform="translate(23,116)"/>
<path d="M0 0 C1.2065625 0.0309375 1.2065625 0.0309375 2.4375 0.0625 C2.4375 0.7225 2.4375 1.3825 2.4375 2.0625 C1.7775 2.0625 1.1175 2.0625 0.4375 2.0625 C0.4375 4.0425 0.4375 6.0225 0.4375 8.0625 C-0.5525 8.3925 -1.5425 8.7225 -2.5625 9.0625 C-3.92873674 6.33002652 -3.690926 4.08051098 -3.5625 1.0625 C-2.5625 0.0625 -2.5625 0.0625 0 0 Z " fill="#FBFBFB" transform="translate(287.5625,115.9375)"/>
<path d="M0 0 C1.32 0 2.64 0 4 0 C4 2.97 4 5.94 4 9 C2.68 9 1.36 9 0 9 C0 6.03 0 3.06 0 0 Z " fill="#F4F4F3" transform="translate(350,116)"/>
<path d="M0 0 C0.99 0.33 1.98 0.66 3 1 C-1.33333333 5.33333333 -5.66666667 9.66666667 -10 14 C-8.51131293 9.39860359 -6.25370145 6.49772906 -3 3 C-2.34 3 -1.68 3 -1 3 C-0.67 2.01 -0.34 1.02 0 0 Z " fill="#F6F0EE" transform="translate(319,8)"/>
<path d="M0 0 C2.475 0.495 2.475 0.495 5 1 C5 3.64 5 6.28 5 9 C4.01 9 3.02 9 2 9 C2 6.36 2 3.72 2 1 C1.34 0.67 0.68 0.34 0 0 Z " fill="#FAFAFA" transform="translate(51,116)"/>
<path d="M0 0 C0.99 0 1.98 0 3 0 C3 2.97 3 5.94 3 9 C2.01 9 1.02 9 0 9 C0 6.03 0 3.06 0 0 Z " fill="#FAFAF9" transform="translate(260,116)"/>
<path d="M0 0 C0.99 0 1.98 0 3 0 C3 2.97 3 5.94 3 9 C2.01 9 1.02 9 0 9 C0 6.03 0 3.06 0 0 Z " fill="#FDFCFC" transform="translate(63,116)"/>
<path d="M0 0 C1.65 0 3.3 0 5 0 C6.125 3.75 6.125 3.75 5 6 C3.68 5.67 2.36 5.34 1 5 C1 4.01 1 3.02 1 2 C0.67 1.34 0.34 0.68 0 0 Z " fill="#EEEEEE" transform="translate(363,123)"/>
<path d="M0 0 C0.28875 0.639375 0.5775 1.27875 0.875 1.9375 C1.82823451 4.15206079 1.82823451 4.15206079 4 5 C4 5.66 4 6.32 4 7 C2.35 6.67 0.7 6.34 -1 6 C-1.042721 4.33388095 -1.04063832 2.66617115 -1 1 C-0.67 0.67 -0.34 0.34 0 0 Z " fill="#FEFEFE" transform="translate(225,118)"/>
<path d="M0 0 C1.32 0 2.64 0 4 0 C4 0.66 4 1.32 4 2 C2.68 2 1.36 2 0 2 C0 1.34 0 0.68 0 0 Z " fill="#F8F9F8" transform="translate(350,112)"/>
<path d="M0 0 C0.99 0 1.98 0 3 0 C3 0.66 3 1.32 3 2 C2.01 2 1.02 2 0 2 C0 1.34 0 0.68 0 0 Z " fill="#FEFEFC" transform="translate(260,112)"/>
<path d="M0 0 C0.99 0 1.98 0 3 0 C3 0.66 3 1.32 3 2 C2.01 2 1.02 2 0 2 C0 1.34 0 0.68 0 0 Z " fill="#FFFFFF" transform="translate(63,112)"/>
</svg>
